<svg version="1.1" xmlns="http://www.w3.org/2000/svg" height="1024" width="1024" viewBox="0 0 1024 1024"><path d="M26.815226 538.816181A485.183819 485.183819 0 1 0 511.999044 53.508885 485.183819 485.183819 0 0 0 26.815226 538.816181z m0 0" fill="#F8C913" data-darkreader-inline-fill="" style="--darkreader-inline-fill:#8f7304;"></path><path d="M659.883797 12.349756c-18.151176 20.78536-57.170031 38.977696-109.030534 51.901662-88.121696 20.78536-106.272872 25.930252-132.244283 41.488403a190.896043 190.896043 0 0 0-43.793314 30.869347C354.030305 154.883821 338.513314 188.593148 343.740523 199.006408c2.510707 5.144891 51.901662 75.19773 111.541241 160.808719 59.639579 82.976805 116.686132 166.077088 129.733576 184.228264a275.766168 275.766168 0 0 1 20.579565 34.285555c0 2.510707-10.41326 0-20.579565-2.634185-41.61188-13.006285-114.298903 0-166.077087 25.930252a268.522161 268.522161 0 0 0-101.251459 100.592912 181.635239 181.635239 0 0 0-7.902553 137.14222 192.130817 192.130817 0 0 0 93.266588 98.781911c34.285555 18.151176 41.488403 18.151176 85.610989 20.579565a228.638964 228.638964 0 0 0 77.831914-5.144892c96.024249-28.564436 165.95361-103.762166 171.427774-192.007339 2.634184-49.390955-2.634184-64.825629-67.418654-179.001054-101.374936-176.119915-192.213135-336.928634-192.213135-339.727455 0 0 18.192335-2.510707 41.488403-5.144891a171.427774 171.427774 0 0 0 150.518937-90.550085c13.129762-23.419545 13.129762-31.19862 13.129762-80.466098a238.31136 238.31136 0 0 0-5.144891-62.314922c-2.634184-7.779075-5.268369-5.144891-18.151176 7.779075z m0 0" fill="#02B053" data-darkreader-inline-fill="" style="--darkreader-inline-fill:#028d42;"></path></svg>